<svg id="Layer_1" enable-background="new 0 0 512 512" height="512" viewBox="0 0 512 512" width="512" xmlns="http://www.w3.org/2000/svg"><path clip-rule="evenodd" d="m256.001 512c99.81-34.529 155.267-80.939 184.862-154.376 29.075-72.156 32.666-170.508 28.167-304.773l-213.029-52.851-213.032 52.851c-4.497 134.265-.908 232.616 28.165 304.773 29.597 73.437 85.055 119.847 184.867 154.376zm109.696-267.226c0 10.129-8.213 18.338-18.342 18.338h-73.012v73.016c0 10.124-8.213 18.343-18.342 18.343-10.131 0-18.344-8.22-18.344-18.343v-73.016h-73.01c-10.131 0-18.344-8.209-18.344-18.338 0-10.14 8.213-18.343 18.344-18.343h73.01v-73.016c0-10.124 8.213-18.343 18.344-18.343 10.129 0 18.342 8.22 18.342 18.343v73.016h73.012c10.128-.001 18.342 8.203 18.342 18.343z" fill-rule="evenodd"/></svg>