<?xml version="1.0" encoding="UTF-8"?>
<svg xmlns="http://www.w3.org/2000/svg" id="Layer_1" data-name="Layer 1" viewBox="0 0 512 512" width="512" height="512"><ellipse cx="187.06" cy="360.52" rx="40.45" ry="35.15" transform="translate(-195.6 224.35) rotate(-42.99)"/><ellipse cx="403.28" cy="360.52" rx="40.45" ry="35.15" transform="translate(-137.54 371.8) rotate(-42.99)"/><rect x="5.41" y="182.71" width="34.15" height="34.15" rx="17.08"/><path d="M346.48,356.94c6.07-30,34.41-53.84,64.87-53.84,29.33,0,50.47,22.11,49.89,50.54,31.72.83,40.55-40.94,40.55-40.94,2.67-11.68,6.66-34.45,10-56.8a37.76,37.76,0,0,0-2.43-20.42A350.18,350.18,0,0,0,479.42,180c-11-16.41-29.45-26.13-50.51-26.48-12.56-.2-24.89-.32-34.2-.32l-.08-.08c-1.2-20.08-15.84-35.46-36.39-37.3-13.37-1.19-66.33-2.06-91.75-2.06-10.1,0-24.59.14-39.25.38v-.06h-.12l0,0,0,0H50.86a17.07,17.07,0,0,0-17.08,17.08v.08a17,17,0,0,0,17,17l35.53,0h0a17,17,0,0,1,15.75,16.94v.09A17.08,17.08,0,0,1,85,182.4H66.78a17.07,17.07,0,0,0-17.07,17.07h0a17.07,17.07,0,0,0,17.07,17.08H85a17.08,17.08,0,0,1,17.08,17.08h0A17.08,17.08,0,0,1,85,250.71H16.84A17.08,17.08,0,0,0-.24,267.78h0a17.08,17.08,0,0,0,17.08,17.08H85a17.08,17.08,0,0,1,17.08,17.08h0A17.08,17.08,0,0,1,85,319H63.92a17.07,17.07,0,0,0-17.07,17.07h0a17.08,17.08,0,0,0,17.07,17.08l67.26-.05,5.59-13.93h0c11.45-21.12,34.23-36.08,58.35-36.08,30.47,0,52.11,23.86,49.73,53.88H346.47M177.07,190.35H154.15a.1.1,0,0,0-.09.08l-2.11,15a.08.08,0,0,0,.08.1h17.06a5.63,5.63,0,0,1,5.7,6.63,7.89,7.89,0,0,1-7.56,6.63H150.15a.09.09,0,0,0-.09.07L147,240.65a7.89,7.89,0,0,1-7.56,6.63,5.62,5.62,0,0,1-5.69-6.63l7.94-56.52a8.36,8.36,0,0,1,8-7h29.23a5.62,5.62,0,0,1,5.69,6.63A7.87,7.87,0,0,1,177.07,190.35Zm61.26-8.72a15.55,15.55,0,0,1,4.8,8,27.57,27.57,0,0,1,.4,10.7A29.23,29.23,0,0,1,237,215.38a21,21,0,0,1-8.07,5.87.08.08,0,0,0,0,.11l5.68,16.39c1.53,4.4-2.4,9.53-7.29,9.53H227a5.59,5.59,0,0,1-5.44-3.74l-6.87-20a.11.11,0,0,0-.09-.05H200a.1.1,0,0,0-.09.07l-2.4,17.08a7.89,7.89,0,0,1-7.56,6.63,5.62,5.62,0,0,1-5.69-6.63l7.94-56.52a8.36,8.36,0,0,1,8-7h22.6S232.72,176.81,238.33,181.63Zm62.2,1.66a7.36,7.36,0,0,1-7.06,6.19H267.18a.1.1,0,0,0-.09.07L265,204.39a.08.08,0,0,0,.08.1h20.42a5.25,5.25,0,0,1,5.32,6.19,7.36,7.36,0,0,1-7.06,6.19H263.33a.1.1,0,0,0-.09.07l-2.51,17.86a.1.1,0,0,0,.09.1h26.27a5.25,5.25,0,0,1,5.32,6.19h0a7.36,7.36,0,0,1-7.06,6.19h-32.6a6,6,0,0,1-6-7l7.89-56.12a8.36,8.36,0,0,1,8-7h32.59A5.25,5.25,0,0,1,300.53,183.29Zm54.61,0a7.36,7.36,0,0,1-7.06,6.19H321.79a.1.1,0,0,0-.09.07l-2.08,14.84a.08.08,0,0,0,.08.1h20.42a5.25,5.25,0,0,1,5.32,6.19,7.36,7.36,0,0,1-7.06,6.19H317.94a.1.1,0,0,0-.09.07l-2.51,17.86a.1.1,0,0,0,.09.1H341.7a5.25,5.25,0,0,1,5.32,6.19h0a7.36,7.36,0,0,1-7.06,6.19h-32.6a6,6,0,0,1-6-7l7.89-56.12a8.36,8.36,0,0,1,8-7h32.59A5.25,5.25,0,0,1,355.14,183.29Zm38-6.41c8.93,0,20.49.12,32.09.31,14.06.23,26.36,6.69,33.74,17.71A322.39,322.39,0,0,1,480.18,232c3.3,6.72-2.77,15.47-10.72,15.47H384.21Z"/><path d="M217.45,211.12h-15.8l3-21.64h15.79s11.59-.75,9.69,10.82C230.18,200.3,228.85,211.12,217.45,211.12Z"/></svg>
