<?xml version="1.0" encoding="iso-8859-1"?>
<!-- Generator: Adobe Illustrator 19.0.0, SVG Export Plug-In . SVG Version: 6.00 Build 0)  -->
<svg version="1.1" id="Layer_1" xmlns="http://www.w3.org/2000/svg" xmlns:xlink="http://www.w3.org/1999/xlink" x="0px" y="0px"
	 viewBox="0 0 512.001 512.001" style="enable-background:new 0 0 512.001 512.001;" xml:space="preserve">
<g>
	<g>
		<path d="M414.041,149.672l-84.529-12.283l-37.803-76.595c-14.595-29.578-56.816-29.589-71.418-0.001l-37.803,76.596
			l-84.529,12.283c-32.64,4.742-45.695,44.891-22.069,67.923l61.166,59.622l-14.439,84.186c-5.576,32.506,28.57,57.331,57.779,41.98
			L256,363.633l75.606,39.75c29.243,15.371,63.341-9.547,57.776-41.98l-14.439-84.186l61.167-59.622
			C459.727,194.571,446.694,154.417,414.041,149.672z"/>
	</g>
</g>
<g>
	<g>
		<path d="M134.731,47.152L114.32,19.06c-5.541-7.624-16.214-9.315-23.838-3.774c-7.625,5.54-9.315,16.213-3.775,23.838
			l20.411,28.092c5.544,7.628,16.218,9.313,23.838,3.774C138.581,65.451,140.271,54.777,134.731,47.152z"/>
	</g>
</g>
<g>
	<g>
		<path d="M66.997,298.908c-2.913-8.963-12.539-13.873-21.505-10.957L11.797,298.9c-8.964,2.911-13.869,12.54-10.957,21.505
			c2.918,8.981,12.564,13.866,21.505,10.957l33.696-10.949C65.005,317.502,69.91,307.873,66.997,298.908z"/>
	</g>
</g>
<g>
	<g>
		<path d="M421.519,15.286c-7.624-5.541-18.297-3.851-23.838,3.774l-20.411,28.092c-5.541,7.625-3.85,18.299,3.775,23.838
			c7.628,5.542,18.299,3.848,23.838-3.774l20.411-28.092C430.835,31.499,429.144,20.826,421.519,15.286z"/>
	</g>
</g>
<g>
	<g>
		<path d="M500.204,298.9l-33.696-10.949c-8.964-2.918-18.592,1.993-21.505,10.957c-2.913,8.964,1.992,18.592,10.957,21.505
			l33.696,10.949c8.946,2.91,18.588-1.981,21.505-10.957C514.073,311.441,509.168,301.813,500.204,298.9z"/>
	</g>
</g>
<g>
	<g>
		<path d="M256,431.206c-9.425,0-17.066,7.641-17.066,17.066v34.638c0,9.425,7.641,17.066,17.066,17.066s17.066-7.641,17.066-17.066
			v-34.638C273.067,438.847,265.426,431.206,256,431.206z"/>
	</g>
</g>
<g>
</g>
<g>
</g>
<g>
</g>
<g>
</g>
<g>
</g>
<g>
</g>
<g>
</g>
<g>
</g>
<g>
</g>
<g>
</g>
<g>
</g>
<g>
</g>
<g>
</g>
<g>
</g>
<g>
</g>
</svg>
