<svg id="Layer_1" enable-background="new 0 0 512.08 512.08" height="512" viewBox="0 0 512.08 512.08" width="512" xmlns="http://www.w3.org/2000/svg"><path d="m471.048 296.066h-24.017v-50c0-32.525-26.916-58.986-60-58.986s-60 26.461-60 58.986v50h-23.983c-11.046 0-20 8.954-20 20v126.017c-14.568 10.539-30.633 19.952-47.999 28.062-115.711-54.067-171.293-164.761-173.919-346.647 92.709-5.435 148.475-47.684 173.918-73.025 25.443 25.342 81.209 67.59 173.919 73.025-.086 6.063-.23 12.041-.432 17.894-.38 11.04 8.261 20.296 19.3 20.676 11.042.366 20.296-8.261 20.676-19.3.431-12.525.611-25.58.536-38.801-.062-11.001-8.998-19.887-20-19.887-51.613 0-97.134-12.629-135.298-37.537-27.973-18.256-41.589-36.833-42.28-37.792-3.722-5.473-9.799-8.751-16.421-8.751s-12.699 3.278-16.421 8.751c-.691.958-14.307 19.536-42.28 37.792-38.164 24.908-83.685 37.537-135.299 37.537-11.001 0-19.937 8.885-20 19.886-.609 107.119 15.156 191.511 48.196 257.999 16.883 33.975 38.709 63.661 64.872 88.234 26.052 24.469 57.327 44.73 92.957 60.222 2.543 1.106 5.259 1.659 7.975 1.659 2.715 0 5.432-.553 7.975-1.658 27.15-11.806 51.848-26.406 73.406-43.398.385-.304.739-.632 1.096-.957h153.524c11.046 0 20-8.954 20-20v-130c-.001-11.046-8.955-20.001-20.001-20.001zm-104.016-50c0-10.469 8.972-18.986 20-18.986s20 8.517 20 18.986v50h-40zm84.016 180h-128v-90h128z"/></svg>